<svg xmlns="http://www.w3.org/2000/svg" xmlns:xlink="http://www.w3.org/1999/xlink" xmlns:fi="http://pattern.flaticon.com/" x="0" y="0" width="1440" height="720" viewBox="0 0 1680 840"><rect x="0px" y="0px" width="100%" height="100%" opacity="1" fill="#2b3137"/><defs><g transform="matrix(0.2263888655365004 0.0606607136959033 -0.0606607136959033 0.2263888655365004 -31.819805153394643 -55.11351921262151)" id="L1_86"><path d="M64,0 64,384 288,384 384,288 384,0z" fill="#efeeee"/><path d="M288,288 288,384 384,288z" fill="#ababab"/><path d="M192,384 288,384 288,288z" fill="#dededd"/><path d="M0,96v112h256V96H0z" fill="#e16344"/><g><path d="M66.8,134.288c-0.288-1.344-0.752-2.576-1.392-3.696c-0.64-1.104-1.456-2.048-2.432-2.784   c-0.992-0.736-2.208-1.104-3.616-1.104c-3.328,0-5.712,1.856-7.2,5.584c-1.472,3.696-2.208,9.856-2.208,18.416   c0,4.112,0.128,7.808,0.384,11.136c0.256,3.328,0.72,6.16,1.392,8.496s1.632,4.128,2.88,5.376c1.248,1.248,2.864,1.872,4.848,1.872   c0.848,0,1.744-0.24,2.752-0.672c0.992-0.448,1.904-1.12,2.784-2.016c0.864-0.912,1.584-2.032,2.16-3.408S68,168.48,68,166.624   v-7.008h-9.104V149.44h22.352v36.96H71.072v-6.336h-0.176c-1.664,2.704-3.664,4.592-6,5.712s-5.136,1.68-8.4,1.68   c-4.224,0-7.664-0.752-10.336-2.224c-2.672-1.472-4.736-3.728-6.24-6.816c-1.504-3.088-2.512-6.864-3.008-11.376   c-0.512-4.512-0.784-9.744-0.784-15.696c0-5.744,0.368-10.816,1.104-15.152c0.736-4.352,2-7.984,3.792-10.912   c1.776-2.912,4.16-5.088,7.088-6.576c2.96-1.472,6.624-2.208,11.04-2.208c7.552,0,12.992,1.872,16.32,5.632   c3.328,3.728,4.992,9.088,4.992,16.08H67.232C67.232,136.944,67.088,135.632,66.8,134.288z" fill="#ffffff"/><path d="M100.448,117.856h13.824V186.4h-13.824V117.856z" fill="#ffffff"/><path d="M174.272,129.184h-14.976V186.4h-13.824v-57.216h-14.976v-11.328h43.776V129.184z" fill="#ffffff"/></g></g><g transform="matrix(0.0833333283662796 0 0 0.0833333283662796 155 330)" id="L1_87"><path d="m344 472c-17.671875 0-32-14.328125-32-32v-32h-272v-320h80v-80h256v432c0 17.671875-14.328125 32-32 32zm0 0" fill="#f4f4e6"/><path d="m120 88h-80l80-80zm0 0" fill="#cfdfe8"/><path d="m152 40h256v128h-256zm0 0" fill="#f9bb4b"/><path d="m40 472c-17.671875 0-32-14.328125-32-32v-32h304v32c0 17.671875 14.328125 32 32 32zm0 0" fill="#cfdfe8"/><path d="m64 112h16v16h-16zm0 0" fill="#eb8cb3"/><path d="m96 136h16v16h-16zm0 0" fill="#eb8cb3"/><g fill="#394d5c"><path d="m232 144h-48c-4.417969 0-8-3.582031-8-8v-64c0-4.417969 3.582031-8 8-8h56v16h-48v48h32v-16h-16v-16h24c4.417969 0 8 3.582031 8 8v32c0 4.417969-3.582031 8-8 8zm0 0"/><path d="m256 64h16v80h-16zm0 0"/><path d="m288 64h64v16h-64zm0 0"/><path d="m312 72h16v72h-16zm0 0"/></g><path d="m72 200h272v176h-272zm0 0" fill="#32b1cc"/><path d="m160 288h-16c.039062-35.328125 28.671875-63.960938 64-64 21.980469-1.328125 42.960938 9.335938 54.847656 27.871094l-13.695312 8.257812c-9.089844-13.632812-24.808594-21.324218-41.152344-20.128906-26.5.027344-47.972656 21.5-48 48zm0 0" fill="#e33e5c"/><path d="m208 352c-21.503906.011719-41.742188-10.160156-54.558594-27.425781l13.117188-9.148438c9.78125 13.027344 25.152344 20.65625 41.441406 20.574219 26.5-.027344 47.972656-21.5 48-48h16c-.039062 35.328125-28.671875 63.960938-64 64zm0 0" fill="#e33e5c"/><path d="m282.34375 317.65625-19.917969-19.921875-26.851562 13.425781-7.148438-14.320312 37.148438-18.574219 28.082031 28.078125zm0 0" fill="#e33e5c"/><path d="m150.425781 297.734375-28.082031-28.078125 11.3125-11.3125 19.917969 19.921875 26.851562-13.425781 7.148438 14.320312zm0 0" fill="#e33e5c"/><path d="m96 224h16v16h-16zm0 0" fill="#195c85"/><path d="m288 336h32v16h-32zm0 0" fill="#195c85"/><path d="m32 400h-32v40c.0273438 22.082031 17.917969 39.972656 40 40h304c22.082031-.027344 39.972656-17.917969 40-40v-264h32v-144h-32v-24c0-4.417969-3.582031-8-8-8h-256c-2.125-.00390625-4.167969.84375-5.664062 2.351562l-80 80c-1.5 1.496094-2.339844 3.53125-2.335938 5.648438zm-16 40v-24h288v24c.03125 8.683594 2.914062 17.117188 8.207031 24h-272.207031c-13.253906 0-24-10.746094-24-24zm384-280h-240v-112h240zm-32-128h-224v144h224v264c0 13.253906-10.746094 24-24 24s-24-10.746094-24-24v-32c0-4.417969-3.582031-8-8-8h-264v-304h72c4.417969 0 8-3.582031 8-8v-72h240zm-308.6875 48 52.6875-52.6875v52.6875zm0 0"/><path d="m64 112h16v16h-16zm0 0"/><path d="m96 136h16v16h-16zm0 0"/><path d="m184 144h48c4.417969 0 8-3.582031 8-8v-32c0-4.417969-3.582031-8-8-8h-24v16h16v16h-32v-48h48v-16h-56c-4.417969 0-8 3.582031-8 8v64c0 4.417969 3.582031 8 8 8zm0 0"/><path d="m256 64h16v80h-16zm0 0"/><path d="m312 144h16v-64h24v-16h-64v16h24zm0 0"/><path d="m64 384h288v-192h-288zm16-176h256v160h-256zm0 0"/><path d="m293.65625 306.34375-28.082031-28.078125-37.148438 18.535156 7.148438 14.320313 18.328125-9.167969c-6.15625 20.199219-24.78125 34.015625-45.902344 34.046875-16.289062.082031-31.660156-7.546875-41.441406-20.574219l-13.117188 9.148438c12.816406 17.265625 33.054688 27.4375 54.558594 27.425781 28.78125-.054688 53.996094-19.292969 61.648438-47.039062l12.695312 12.695312zm0 0"/><path d="m180.425781 264.800781-18.328125 9.167969c6.1875-20.171875 24.804688-33.949219 45.902344-33.96875 16.34375-1.195312 32.0625 6.496094 41.152344 20.128906l13.695312-8.257812c-11.886718-18.535156-32.867187-29.199219-54.847656-27.871094-28.78125.054688-53.996094 19.292969-61.648438 47.039062l-12.695312-12.695312-11.3125 11.3125 28.082031 28.078125 37.148438-18.535156zm0 0"/><path d="m96 224h16v16h-16zm0 0"/><path d="m288 336h32v16h-32zm0 0"/></g><g transform="matrix(0.8333333134651184 0 0 0.8333333134651184 77.5 340)" id="L1_88"><path d="m10.735 5.823c-.909.365-1.887.632-2.882.632-2.845-1.661-6.706.07-6.706 3.708h.001c0 1.356.856 3.215 2.194 3.67v.054c-.994.445-1.269 2.711.053 3.525v.054c-1.444.481-2.395 1.408-2.395 3.009 0 2.759 2.58 3.525 4.839 3.525 2.751 0 4.797-1.002 4.797-4.072 0-3.777-5.341-2.384-5.341-4.436 0-.723.381-1.002 1.041-1.141 2.194-.413 3.57-2.143 3.57-4.404 0-.391-.079-.761-.212-1.125.354-.08.698-.177 1.041-.295zm-4.949 13.116v-.001c.899 0 2.179.161 2.179 1.339 0 1.168-1.031 1.409-1.994 1.409-.915 0-2.29-.145-2.29-1.35.005-1.193 1.168-1.397 2.105-1.397zm-.169-6.937v-.001c-1.163 0-1.655-.696-1.655-1.81 0-2.641 3.226-2.614 3.226-.026-.001 1.087-.424 1.837-1.571 1.837z"/><path d="m23 17.277v-2.625c-.423.295-1.031.445-1.549.445-.978 0-1.153-.965-1.153-1.758v-4.88c1.677 0 2.698.054 2.698.054v-2.546h-2.698c0-.734-.027-1.467.079-2.207h-2.999c.095.546.079 1.013.079 2.207h-1.269v2.545c.883-.139.899-.054 1.269-.054v.054h-.026v4.698c0 2.33.333 4.591 3.162 4.591.794.001 1.704-.133 2.407-.524z"/><path d="m13.492 0c-1.057 0-1.824.931-1.824 1.966 0 1.018.777 1.94 1.824 1.94 1.02 0 1.787-.937 1.787-1.94 0-1.001-.741-1.966-1.787-1.966z"/><path d="m12.016 5.957c.095.792.085 10.699 0 11.668h2.936c-.085-.963-.095-10.886 0-11.668z"/></g><g transform="matrix(0.625 0 0 0.625 252.5 340)" id="L1_89"><path d="m26 32h-20c-3.314 0-6-2.686-6-6v-20c0-3.314 2.686-6 6-6h20c3.314 0 6 2.686 6 6v20c0 3.314-2.686 6-6 6z" fill="#ffe6e2"/><path d="m15.157 11.882c-.606.243-1.258.421-1.922.421-1.897-1.107-4.471.046-4.471 2.472h.001c0 .904.571 2.143 1.463 2.447v.036c-.663.296-.846 1.807.035 2.35v.036c-.963.322-1.597.939-1.597 2.007 0 1.839 1.72 2.35 3.226 2.35 1.834 0 3.198-.668 3.198-2.715 0-2.518-3.561-1.589-3.561-2.957 0-.482.254-.668.694-.76 1.463-.275 2.38-1.429 2.38-2.936 0-.261-.053-.507-.141-.75.236-.053.466-.118.694-.197v-1.804zm-3.3 8.744c.599-.001 1.452.107 1.452.892 0 .779-.687.939-1.329.939-.61 0-1.527-.097-1.527-.9.004-.795.78-.931 1.404-.931zm-.113-4.625c-.775-.001-1.103-.465-1.103-1.208 0-1.761 2.15-1.743 2.15-.018 0 .726-.282 1.226-1.047 1.226z" fill="#fc573b"/><path d="m23.333 19.518v-1.75c-.282.197-.687.296-1.033.296-.652 0-.769-.643-.769-1.172v-3.253c1.118 0 1.798.036 1.798.036v-1.697h-1.798c0-.489-.018-.978.053-1.471h-1.999c.063.364.053.675.053 1.471h-.846v1.697c.589-.093.599-.036.846-.036v.036h-.017v3.132c0 1.554.222 3.061 2.108 3.061.529 0 1.136-.089 1.604-.35z" fill="#fc573b"/><path d="m16.994 8c-.705 0-1.216.621-1.216 1.311 0 .679.518 1.293 1.216 1.293.68 0 1.191-.625 1.191-1.293.001-.668-.493-1.311-1.191-1.311z" fill="#fd907e"/><path d="m16.011 11.971c.063.528.056 7.133 0 7.779h1.957c-.056-.642-.063-7.258 0-7.779z" fill="#fc573b"/></g><g transform="matrix(0.0833333283662796 0 0 0.0833333283662796 67.5 67.5)" id="L1_90"><path d="m32 400h-32v40c.0273438 22.082031 17.917969 39.972656 40 40h304c22.082031-.027344 39.972656-17.917969 40-40v-264h32v-144h-32v-24c0-4.417969-3.582031-8-8-8h-256c-2.125-.00390625-4.167969.84375-5.664062 2.351562l-80 80c-1.5 1.496094-2.339844 3.53125-2.335938 5.648438zm-16 40v-24h288v24c.03125 8.683594 2.914062 17.117188 8.207031 24h-272.207031c-13.253906 0-24-10.746094-24-24zm384-280h-240v-112h240zm-32-128h-224v144h224v264c0 13.253906-10.746094 24-24 24s-24-10.746094-24-24v-32c0-4.417969-3.582031-8-8-8h-264v-304h72c4.417969 0 8-3.582031 8-8v-72h240zm-308.6875 48 52.6875-52.6875v52.6875zm0 0"/><path d="m64 112h16v16h-16zm0 0"/><path d="m96 136h16v16h-16zm0 0"/><path d="m184 144h48c4.417969 0 8-3.582031 8-8v-32c0-4.417969-3.582031-8-8-8h-24v16h16v16h-32v-48h48v-16h-56c-4.417969 0-8 3.582031-8 8v64c0 4.417969 3.582031 8 8 8zm0 0"/><path d="m256 64h16v80h-16zm0 0"/><path d="m312 144h16v-64h24v-16h-64v16h24zm0 0"/><path d="m64 384h288v-192h-288zm16-176h256v160h-256zm0 0"/><path d="m293.65625 306.34375-28.082031-28.078125-37.148438 18.535156 7.148438 14.320313 18.328125-9.167969c-6.15625 20.199219-24.78125 34.015625-45.902344 34.046875-16.289062.082031-31.660156-7.546875-41.441406-20.574219l-13.117188 9.148438c12.816406 17.265625 33.054688 27.4375 54.558594 27.425781 28.78125-.054688 53.996094-19.292969 61.648438-47.039062l12.695312 12.695312zm0 0"/><path d="m180.425781 264.800781-18.328125 9.167969c6.1875-20.171875 24.804688-33.949219 45.902344-33.96875 16.34375-1.195312 32.0625 6.496094 41.152344 20.128906l13.695312-8.257812c-11.886718-18.535156-32.867187-29.199219-54.847656-27.871094-28.78125.054688-53.996094 19.292969-61.648438 47.039062l-12.695312-12.695312-11.3125 11.3125 28.082031 28.078125 37.148438-18.535156zm0 0"/><path d="m96 224h16v16h-16zm0 0"/><path d="m288 336h32v16h-32zm0 0"/></g><g transform="matrix(0.1041666641831398 0 0 0.1041666641831398 242.5 67.5)" id="L1_91"><path d="M64,0v80H0v144h64v160h224l96-96V0H64z M16,208V96h240v112H16z M288,361.376V288h73.376L288,361.376z M368,272h-96v96H80    V224h192V80H80V16h288V272z"/><path d="M70.896,149.44v10.176H80v7.008c0,1.856-0.272,3.488-0.848,4.864c-0.576,1.376-1.296,2.496-2.16,3.408    c-0.88,0.896-1.792,1.568-2.784,2.016c-1.008,0.432-1.904,0.672-2.752,0.672c-1.984,0-3.6-0.624-4.848-1.872    c-1.248-1.248-2.208-3.04-2.88-5.376s-1.136-5.168-1.392-8.496s-0.384-7.024-0.384-11.136c0-8.56,0.736-14.72,2.208-18.416    c1.488-3.728,3.872-5.584,7.2-5.584c1.408,0,2.624,0.368,3.616,1.104c0.976,0.736,1.792,1.68,2.432,2.784    c0.64,1.12,1.104,2.352,1.392,3.696c0.288,1.344,0.432,2.656,0.432,3.92h13.232c0-6.992-1.664-12.352-4.992-16.08    c-3.328-3.76-8.768-5.632-16.32-5.632c-4.416,0-8.08,0.736-11.04,2.208c-2.928,1.488-5.312,3.664-7.088,6.576    c-1.792,2.928-3.056,6.56-3.792,10.912c-0.736,4.336-1.104,9.408-1.104,15.152c0,5.952,0.272,11.184,0.784,15.696    c0.496,4.512,1.504,8.288,3.008,11.376c1.504,3.088,3.568,5.344,6.24,6.816s6.112,2.224,10.336,2.224c3.264,0,6.064-0.56,8.4-1.68    s4.336-3.008,6-5.712h0.176v6.336h10.176v-36.96H70.896z"/><rect x="112px" y="117px" width="13px" height="68px"/><path d="M142.496,117.856 142.496,129.184 157.472,129.184 157.472,186.4 171.296,186.4 171.296,129.184 186.272,129.184     186.272,117.856z"/></g><g transform="matrix(0.1822916716337204 0 0 0.1822916716337204 315 140)" id="L1_92"><path d="M64,0v80h224v144h-16V96H0v112h64v176h240v-80h80V0H64z M70.896,180.064c-1.664,2.704-3.664,4.592-6,5.712    c-2.336,1.12-5.136,1.68-8.4,1.68c-4.224,0-7.664-0.752-10.336-2.224c-2.672-1.472-4.736-3.728-6.24-6.816    c-1.504-3.088-2.512-6.864-3.008-11.376c-0.512-4.512-0.784-9.744-0.784-15.696c0-5.744,0.368-10.816,1.104-15.152    c0.736-4.352,2-7.984,3.792-10.912c1.776-2.912,4.16-5.088,7.088-6.576c2.96-1.472,6.624-2.208,11.04-2.208    c7.552,0,12.992,1.872,16.32,5.632c3.328,3.728,4.992,9.088,4.992,16.08H67.232c0-1.264-0.144-2.576-0.432-3.92    c-0.288-1.344-0.752-2.576-1.392-3.696c-0.64-1.104-1.456-2.048-2.432-2.784c-0.992-0.736-2.208-1.104-3.616-1.104    c-3.328,0-5.712,1.856-7.2,5.584c-1.472,3.696-2.208,9.856-2.208,18.416c0,4.112,0.128,7.808,0.384,11.136    c0.256,3.328,0.72,6.16,1.392,8.496s1.632,4.128,2.88,5.376c1.248,1.248,2.864,1.872,4.848,1.872c0.848,0,1.744-0.24,2.752-0.672    c0.992-0.448,1.904-1.12,2.784-2.016c0.864-0.912,1.584-2.032,2.16-3.408c0.576-1.376,0.848-3.008,0.848-4.864v-7.008h-9.104    V149.44h22.352v36.96H71.072v-6.336H70.896z M96,224H80v-16h16V224z M100.448,117.856h13.824V186.4h-13.824V117.856z M128,224h-16    v-16h16V224z M160,224h-16v-16h16V224z M174.272,129.184h-14.976V186.4h-13.824v-57.216h-14.976v-11.328h43.776V129.184z M192,224    h-16v-16h16V224z M224,224h-16v-16h16V224z M256,224h-16v-16h16V224z"/><path d="M320,320 320,384 384,320z"/></g><g transform="matrix(0.1760802335484169 -0.04718055638238178 0.04718055638238178 0.1760802335484169 132.13392928696095 150.25126293779556)" id="L1_93"><path d="M72,8 376,8 376,280 280,376 72,376z" fill="#efeeee"/><path d="M280,280 376,280 280,376z" fill="#ababab"/><rect x="8px" y="88px" width="256px" height="128px" fill="#e16344"/><path d="M64,0v80H0v144h64v160h224l96-96V0H64z M16,96h240v112H16V96z M288,361.376V288h73.376L288,361.376z   M368,272h-96v96H80V224h192V80H80V16h288V272z" fill="#010101"/><g><path d="M78.8,134.288c-0.288-1.344-0.752-2.576-1.392-3.696c-0.64-1.104-1.456-2.048-2.432-2.784   c-0.992-0.736-2.208-1.104-3.616-1.104c-3.328,0-5.712,1.856-7.2,5.584c-1.472,3.696-2.208,9.856-2.208,18.416   c0,4.112,0.128,7.808,0.384,11.136c0.256,3.328,0.72,6.16,1.392,8.496c0.672,2.336,1.632,4.128,2.88,5.376s2.864,1.872,4.848,1.872   c0.848,0,1.744-0.24,2.752-0.672c0.992-0.448,1.904-1.12,2.784-2.016c0.864-0.912,1.584-2.032,2.16-3.408S80,168.48,80,166.624   v-7.008h-9.104V149.44h22.352v36.96H83.072v-6.336h-0.176c-1.664,2.704-3.664,4.592-6,5.712c-2.336,1.12-5.136,1.68-8.4,1.68   c-4.224,0-7.664-0.752-10.336-2.224s-4.736-3.728-6.24-6.816s-2.512-6.864-3.008-11.376c-0.512-4.512-0.784-9.744-0.784-15.696   c0-5.744,0.368-10.816,1.104-15.152c0.736-4.352,2-7.984,3.792-10.912c1.776-2.912,4.16-5.088,7.088-6.576   c2.96-1.472,6.624-2.208,11.04-2.208c7.552,0,12.992,1.872,16.32,5.632c3.328,3.728,4.992,9.088,4.992,16.08H79.232   C79.232,136.944,79.088,135.632,78.8,134.288z" fill="#ffffff"/><path d="M112.448,117.856h13.824V186.4h-13.824V117.856z" fill="#ffffff"/><path d="M186.272,129.184h-14.976V186.4h-13.824v-57.216h-14.976v-11.328h43.776V129.184z" fill="#ffffff"/></g></g><g transform="matrix(0.1041666641831398 0 0 0.1041666641831398 62.5 237.5)" id="L1_94"><path d="m32 400h-32v40c.0273438 22.082031 17.917969 39.972656 40 40h304c22.082031-.027344 39.972656-17.917969 40-40v-264h32v-144h-32v-24c0-4.417969-3.582031-8-8-8h-256c-2.125-.00390625-4.167969.84375-5.664062 2.351562l-80 80c-1.5 1.496094-2.339844 3.53125-2.335938 5.648438zm-16 40v-24h288v24c.03125 8.683594 2.914062 17.117188 8.207031 24h-272.207031c-13.253906 0-24-10.746094-24-24zm384-280h-240v-112h240zm-32-128h-224v144h224v264c0 13.253906-10.746094 24-24 24s-24-10.746094-24-24v-32c0-4.417969-3.582031-8-8-8h-264v-304h72c4.417969 0 8-3.582031 8-8v-72h240zm-308.6875 48 52.6875-52.6875v52.6875zm0 0" fill="#000000"/><path d="m64 112h16v16h-16zm0 0" fill="#000000"/><path d="m96 136h16v16h-16zm0 0" fill="#000000"/><g fill="#000000"><path d="m184 144h48c4.417969 0 8-3.582031 8-8v-32c0-4.417969-3.582031-8-8-8h-24v16h16v16h-32v-48h48v-16h-56c-4.417969 0-8 3.582031-8 8v64c0 4.417969 3.582031 8 8 8zm0 0"/><path d="m256 64h16v80h-16zm0 0"/><path d="m312 144h16v-64h24v-16h-64v16h24zm0 0"/></g><path d="m64 384h288v-192h-288zm16-176h256v160h-256zm0 0" fill="#000000"/><path d="m293.65625 306.34375-28.082031-28.078125-37.148438 18.535156 7.148438 14.320313 18.328125-9.167969c-6.15625 20.199219-24.78125 34.015625-45.902344 34.046875-16.289062.082031-31.660156-7.546875-41.441406-20.574219l-13.117188 9.148438c12.816406 17.265625 33.054688 27.4375 54.558594 27.425781 28.78125-.054688 53.996094-19.292969 61.648438-47.039062l12.695312 12.695312zm0 0" fill="#000000"/><path d="m180.425781 264.800781-18.328125 9.167969c6.1875-20.171875 24.804688-33.949219 45.902344-33.96875 16.34375-1.195312 32.0625 6.496094 41.152344 20.128906l13.695312-8.257812c-11.886718-18.535156-32.867187-29.199219-54.847656-27.871094-28.78125.054688-53.996094 19.292969-61.648438 47.039062l-12.695312-12.695312-11.3125 11.3125 28.082031 28.078125 37.148438-18.535156zm0 0" fill="#000000"/><path d="m96 224h16v16h-16zm0 0" fill="#000000"/><path d="m288 336h32v16h-32zm0 0" fill="#000000"/></g><g transform="matrix(3.75 0 0 3.75 217.5 217.5)" fill="#212121" id="L1_95"><path d="m10.735 5.823c-.909.365-1.887.632-2.882.632-2.845-1.661-6.706.07-6.706 3.708h.001c0 1.356.856 3.215 2.194 3.67v.054c-.994.445-1.269 2.711.053 3.525v.054c-1.444.481-2.395 1.408-2.395 3.009 0 2.759 2.58 3.525 4.839 3.525 2.751 0 4.797-1.002 4.797-4.072 0-3.777-5.341-2.384-5.341-4.436 0-.723.381-1.002 1.041-1.141 2.921-.549 4.113-3.467 3.358-5.528.354-.08.698-.177 1.041-.295zm-4.949 13.116v-.001c.899 0 2.179.161 2.179 1.339 0 1.168-1.031 1.409-1.994 1.409-.915 0-2.29-.145-2.29-1.35.005-1.193 1.168-1.397 2.105-1.397zm-.169-6.937v-.001c-1.163 0-1.655-.696-1.655-1.81 0-2.641 3.226-2.614 3.226-.026-.001 1.087-.424 1.837-1.571 1.837z"/><path d="m23 17.277v-2.625c-.423.295-1.031.445-1.549.445-.978 0-1.153-.965-1.153-1.758v-4.88c1.677 0 2.698.054 2.698.054v-2.546h-2.698c0-.734-.027-1.467.079-2.207h-2.999c.095.546.079 1.013.079 2.207h-1.269v2.545c.883-.139.899-.054 1.269-.054v.054h-.026v4.698c0 2.33.333 4.591 3.162 4.591.794.001 1.704-.133 2.407-.524z"/><path d="m13.492 0c-1.057 0-1.824.931-1.824 1.966 0 1.018.777 1.94 1.824 1.94 1.02 0 1.787-.937 1.787-1.94 0-1.001-.741-1.966-1.787-1.966z"/><path d="m12.016 5.957c.095.792.085 10.699 0 11.668h2.936c-.085-.963-.095-10.886 0-11.668z"/></g></defs><g fi:class="KUsePattern"><pattern id="pattern_L1_86" width="350" height="350" patternUnits="userSpaceOnUse"><use xlink:href="#L1_86" x="-350" y="-350"/><use xlink:href="#L1_86" x="0" y="-350"/><use xlink:href="#L1_86" x="350" y="-350"/><use xlink:href="#L1_86" x="-350" y="0"/><use xlink:href="#L1_86" x="0" y="0"/><use xlink:href="#L1_86" x="350" y="0"/><use xlink:href="#L1_86" x="-350" y="350"/><use xlink:href="#L1_86" x="0" y="350"/><use xlink:href="#L1_86" x="350" y="350"/></pattern><rect x="0" y="0" width="100%" height="100%" fill="url(#pattern_L1_86)"/></g><g fi:class="KUsePattern"><pattern id="pattern_L1_87" width="350" height="350" patternUnits="userSpaceOnUse"><use xlink:href="#L1_87" x="-350" y="-350"/><use xlink:href="#L1_87" x="0" y="-350"/><use xlink:href="#L1_87" x="350" y="-350"/><use xlink:href="#L1_87" x="-350" y="0"/><use xlink:href="#L1_87" x="0" y="0"/><use xlink:href="#L1_87" x="350" y="0"/><use xlink:href="#L1_87" x="-350" y="350"/><use xlink:href="#L1_87" x="0" y="350"/><use xlink:href="#L1_87" x="350" y="350"/></pattern><rect x="0" y="0" width="100%" height="100%" fill="url(#pattern_L1_87)"/></g><g fi:class="KUsePattern"><pattern id="pattern_L1_88" width="350" height="350" patternUnits="userSpaceOnUse"><use xlink:href="#L1_88" x="-350" y="-350"/><use xlink:href="#L1_88" x="0" y="-350"/><use xlink:href="#L1_88" x="350" y="-350"/><use xlink:href="#L1_88" x="-350" y="0"/><use xlink:href="#L1_88" x="0" y="0"/><use xlink:href="#L1_88" x="350" y="0"/><use xlink:href="#L1_88" x="-350" y="350"/><use xlink:href="#L1_88" x="0" y="350"/><use xlink:href="#L1_88" x="350" y="350"/></pattern><rect x="0" y="0" width="100%" height="100%" fill="url(#pattern_L1_88)"/></g><g fi:class="KUsePattern"><pattern id="pattern_L1_89" width="350" height="350" patternUnits="userSpaceOnUse"><use xlink:href="#L1_89" x="-350" y="-350"/><use xlink:href="#L1_89" x="0" y="-350"/><use xlink:href="#L1_89" x="350" y="-350"/><use xlink:href="#L1_89" x="-350" y="0"/><use xlink:href="#L1_89" x="0" y="0"/><use xlink:href="#L1_89" x="350" y="0"/><use xlink:href="#L1_89" x="-350" y="350"/><use xlink:href="#L1_89" x="0" y="350"/><use xlink:href="#L1_89" x="350" y="350"/></pattern><rect x="0" y="0" width="100%" height="100%" fill="url(#pattern_L1_89)"/></g><g fi:class="KUsePattern"><pattern id="pattern_L1_90" width="350" height="350" patternUnits="userSpaceOnUse"><use xlink:href="#L1_90" x="-350" y="-350"/><use xlink:href="#L1_90" x="0" y="-350"/><use xlink:href="#L1_90" x="350" y="-350"/><use xlink:href="#L1_90" x="-350" y="0"/><use xlink:href="#L1_90" x="0" y="0"/><use xlink:href="#L1_90" x="350" y="0"/><use xlink:href="#L1_90" x="-350" y="350"/><use xlink:href="#L1_90" x="0" y="350"/><use xlink:href="#L1_90" x="350" y="350"/></pattern><rect x="0" y="0" width="100%" height="100%" fill="url(#pattern_L1_90)"/></g><g fi:class="KUsePattern"><pattern id="pattern_L1_91" width="350" height="350" patternUnits="userSpaceOnUse"><use xlink:href="#L1_91" x="-350" y="-350"/><use xlink:href="#L1_91" x="0" y="-350"/><use xlink:href="#L1_91" x="350" y="-350"/><use xlink:href="#L1_91" x="-350" y="0"/><use xlink:href="#L1_91" x="0" y="0"/><use xlink:href="#L1_91" x="350" y="0"/><use xlink:href="#L1_91" x="-350" y="350"/><use xlink:href="#L1_91" x="0" y="350"/><use xlink:href="#L1_91" x="350" y="350"/></pattern><rect x="0" y="0" width="100%" height="100%" fill="url(#pattern_L1_91)"/></g><g fi:class="KUsePattern"><pattern id="pattern_L1_92" width="350" height="350" patternUnits="userSpaceOnUse"><use xlink:href="#L1_92" x="-350" y="-350"/><use xlink:href="#L1_92" x="0" y="-350"/><use xlink:href="#L1_92" x="350" y="-350"/><use xlink:href="#L1_92" x="-350" y="0"/><use xlink:href="#L1_92" x="0" y="0"/><use xlink:href="#L1_92" x="350" y="0"/><use xlink:href="#L1_92" x="-350" y="350"/><use xlink:href="#L1_92" x="0" y="350"/><use xlink:href="#L1_92" x="350" y="350"/></pattern><rect x="0" y="0" width="100%" height="100%" fill="url(#pattern_L1_92)"/></g><g fi:class="KUsePattern"><pattern id="pattern_L1_93" width="350" height="350" patternUnits="userSpaceOnUse"><use xlink:href="#L1_93" x="-350" y="-350"/><use xlink:href="#L1_93" x="0" y="-350"/><use xlink:href="#L1_93" x="350" y="-350"/><use xlink:href="#L1_93" x="-350" y="0"/><use xlink:href="#L1_93" x="0" y="0"/><use xlink:href="#L1_93" x="350" y="0"/><use xlink:href="#L1_93" x="-350" y="350"/><use xlink:href="#L1_93" x="0" y="350"/><use xlink:href="#L1_93" x="350" y="350"/></pattern><rect x="0" y="0" width="100%" height="100%" fill="url(#pattern_L1_93)"/></g><g fi:class="KUsePattern"><pattern id="pattern_L1_94" width="350" height="350" patternUnits="userSpaceOnUse"><use xlink:href="#L1_94" x="-350" y="-350"/><use xlink:href="#L1_94" x="0" y="-350"/><use xlink:href="#L1_94" x="350" y="-350"/><use xlink:href="#L1_94" x="-350" y="0"/><use xlink:href="#L1_94" x="0" y="0"/><use xlink:href="#L1_94" x="350" y="0"/><use xlink:href="#L1_94" x="-350" y="350"/><use xlink:href="#L1_94" x="0" y="350"/><use xlink:href="#L1_94" x="350" y="350"/></pattern><rect x="0" y="0" width="100%" height="100%" fill="url(#pattern_L1_94)"/></g><g fi:class="KUsePattern"><pattern id="pattern_L1_95" width="350" height="350" patternUnits="userSpaceOnUse"><use xlink:href="#L1_95" x="-350" y="-350"/><use xlink:href="#L1_95" x="0" y="-350"/><use xlink:href="#L1_95" x="350" y="-350"/><use xlink:href="#L1_95" x="-350" y="0"/><use xlink:href="#L1_95" x="0" y="0"/><use xlink:href="#L1_95" x="350" y="0"/><use xlink:href="#L1_95" x="-350" y="350"/><use xlink:href="#L1_95" x="0" y="350"/><use xlink:href="#L1_95" x="350" y="350"/></pattern><rect x="0" y="0" width="100%" height="100%" fill="url(#pattern_L1_95)"/></g></svg>