<svg xmlns="http://www.w3.org/2000/svg" xmlns:xlink="http://www.w3.org/1999/xlink" xmlns:fi="http://pattern.flaticon.com/" x="0" y="0" width="1440" height="720" viewBox="0 0 1440 720"><rect x="0px" y="0px" width="100%" height="100%" opacity="1" fill="#e8eaee"/><defs><g transform="matrix(2.5 0 0 2.5 86 44)" fill="#212121" id="L1_119"><path d="m10.735 5.823c-.909.365-1.887.632-2.882.632-2.845-1.661-6.706.07-6.706 3.708h.001c0 1.356.856 3.215 2.194 3.67v.054c-.994.445-1.269 2.711.053 3.525v.054c-1.444.481-2.395 1.408-2.395 3.009 0 2.759 2.58 3.525 4.839 3.525 2.751 0 4.797-1.002 4.797-4.072 0-3.777-5.341-2.384-5.341-4.436 0-.723.381-1.002 1.041-1.141 2.921-.549 4.113-3.467 3.358-5.528.354-.08.698-.177 1.041-.295zm-4.949 13.116v-.001c.899 0 2.179.161 2.179 1.339 0 1.168-1.031 1.409-1.994 1.409-.915 0-2.29-.145-2.29-1.35.005-1.193 1.168-1.397 2.105-1.397zm-.169-6.937v-.001c-1.163 0-1.655-.696-1.655-1.81 0-2.641 3.226-2.614 3.226-.026-.001 1.087-.424 1.837-1.571 1.837z"/><path d="m23 17.277v-2.625c-.423.295-1.031.445-1.549.445-.978 0-1.153-.965-1.153-1.758v-4.88c1.677 0 2.698.054 2.698.054v-2.546h-2.698c0-.734-.027-1.467.079-2.207h-2.999c.095.546.079 1.013.079 2.207h-1.269v2.545c.883-.139.899-.054 1.269-.054v.054h-.026v4.698c0 2.33.333 4.591 3.162 4.591.794.001 1.704-.133 2.407-.524z"/><path d="m13.492 0c-1.057 0-1.824.931-1.824 1.966 0 1.018.777 1.94 1.824 1.94 1.02 0 1.787-.937 1.787-1.94 0-1.001-.741-1.966-1.787-1.966z"/><path d="m12.016 5.957c.095.792.085 10.699 0 11.668h2.936c-.085-.963-.095-10.886 0-11.668z"/></g><g transform="matrix(1.2926298379898071 0 0 1.2926298379898071 297 97)" id="L1_120"><path d="M5.739,36.142c4.242,2.753,13.104,2.654,16.857-0.847c0.807-0.752,0.215-3.896,0.215-4.835c0-2.911,0-5.822,0-8.733    c0-2.494-8.185-1.216-9.826-1.216c-0.078,0-0.161,0.012-0.246,0.034c-0.133,0.034-0.399,0.104-0.589,0.175    c-0.129,0.048-0.239,0.11-0.314,0.186c-1.045,1.044-0.963,3.798-0.598,5.16c0.1,0.373,0.62,0.728,1.01,0.728    c3.352,0,3.941,4.557,0.669,4.453c-6.212-0.198-5.484-10.679-3.499-14.3c2.177-3.972,6.106-1.13,9.189-1.147    c0.552-0.003,1.013-0.117,1.04-0.107c0.017,0.006,0.033,0.011,0.049,0.016c0.037,0.011,0.073,0.014,0.107,0.011    c0.06-0.005,0.058-0.038-0.004-0.05s-0.037-0.042,0.055-0.068c0.055-0.016,0.109-0.032,0.163-0.056    c0.974-0.42,2.169-4.813,1.603-5.482c-1.292-1.524-4.56-1.491-6.331-1.646C9.529,7.912,4.172,9.844,1.655,15.299    C-1.282,21.666-0.538,32.07,5.739,36.142z M2.356,20.625c0.042-0.551,0.418-1.304,0.817-1.686    c0.065-0.062,0.131-0.125,0.196-0.187c0.399-0.381,0.779-0.91,0.854-1.18c0.074-0.271-0.168-0.167-0.557,0.226    c-0.146,0.148-0.293,0.296-0.439,0.444c-0.389,0.393-0.699,0.67-0.694,0.621c0.004-0.03,0.007-0.061,0.011-0.091    c0.134-0.979,0.363-1.914,0.685-2.793c0.19-0.519,0.696-1.242,1.084-1.637c1.069-1.089,2.136-2.171,3.197-3.246    c0.389-0.393,1.11-0.9,1.635-1.074c0.433-0.143,0.887-0.259,1.363-0.344c0.367-0.065,0.739-0.113,1.116-0.146    c0.55-0.048,0.825-0.046,0.612-0.032s-0.584,0.232-0.83,0.479c-0.246,0.248-0.191,0.373,0.125,0.297    c0.316-0.077,0.727-0.277,0.911-0.464c0.185-0.186,0.783-0.346,1.335-0.323c0.34,0.014,0.679,0.037,1.018,0.067    c0.551,0.051,0.948,0.158,0.893,0.211c-0.055,0.055,0.291,0.101,0.77,0.117c0.479,0.019,1.036,0.075,1.246,0.117    c0.127,0.026,0.253,0.053,0.378,0.081c2.04,0.456,1.636,0.999,1.19,2.879c-0.496,2.092,0.429,1.536-1.639,1.116    c-1.31-0.267-2.764-0.32-4.095-0.198c-1.574,0.145-3.409,0.463-4.631,1.575c-3.514,3.197-4.462,12.641-0.211,15.699    c2.035,1.464,5.348,1.977,7.148,0.436c0.42-0.358,0.975-1.062,1.377-1.44c0.075-0.071,0.15-0.143,0.226-0.214    c0.401-0.379,0.727-0.699,0.727-0.718c0-0.018-0.319,0.281-0.715,0.667c-0.077,0.076-0.154,0.151-0.232,0.228    c-0.395,0.386-0.538,0.423-0.399,0.048c0.08-0.215,0.144-0.446,0.191-0.696c0.202-1.088,0.024-3.121-1.233-3.518    c-0.269-0.084-0.575-0.114-0.882-0.136c-0.492-0.031-0.818-0.143-0.734-0.222c0.086-0.079,0.154-0.225,0.154-0.325    c0-0.1-0.131-0.05-0.293,0.112c-0.161,0.162-0.561,0.233-0.727-0.017c-0.086-0.13-0.134-0.297-0.134-0.52    c0-0.235-0.032-0.572-0.064-0.949c-0.045-0.523,0.218-1.236,0.561-1.591c0.343-0.353,1.069-0.639,1.621-0.639    c0.486,0,0.973,0,1.459,0c0.553,0,0.923,0.077,0.828,0.172c-0.096,0.095-0.039,0.173,0.127,0.173s0.384-0.078,0.486-0.173    c0.102-0.095,0.21-0.173,0.242-0.173c0.019,0,0.037,0,0.057,0c0.374,0,0.688-0.01,0.954-0.02c0.527-0.017,0.871,0.104,0.771,0.196    c-0.1,0.093-0.016,0.169,0.188,0.169c0.204,0,0.454,0.336,0.466,0.76c0.006,0.214,0.007,0.469,0.007,0.769    c0,2.678,0,5.355,0,8.034c0,1.047,0,2.095,0,3.143c0,1.942-5.899,2.039-7.385,2.016c-4.065-0.063-6.812-1.63-8.573-4.022    C4.588,32.26,4.4,31.834,4.451,31.789c0.05-0.047-0.013-0.339-0.122-0.657s-0.235-0.53-0.295-0.471    c-0.036,0.037-0.072,0.073-0.108,0.107c-0.018,0.02-0.036,0.039-0.054,0.058c-0.029,0.032-0.245-0.339-0.438-0.848    c-0.191-0.508-0.196-1.053-0.045-1.202c0.151-0.15,0.268-0.303,0.262-0.341c-0.006-0.038-0.102,0.019-0.214,0.123    c-0.112,0.105-0.24,0.225-0.284,0.269c-0.043,0.044-0.149-0.15-0.229-0.437c-0.079-0.286,0.022-0.675,0.214-0.864    c0.192-0.19,0.319-0.62,0.293-0.963c-0.026-0.342-0.225-0.431-0.451-0.197c-0.227,0.233-0.471,0.07-0.529-0.364    s0.133-1.018,0.406-1.3c0.273-0.282,0.496-0.958,0.518-1.509c0.006-0.134,0.012-0.266,0.018-0.396    c0.029-0.551-0.198-0.733-0.529-0.407c-0.33,0.327-0.602,0.145-0.584-0.408C2.296,21.529,2.321,21.077,2.356,20.625z"/><path d="M31.762,13.534c-0.268-5.011-8.085-4.296-8.335,0.38c-0.116,2.165,1.331,3.302,3.051,3.53    c0.547,0.071,1.114,0.055,1.262,0.07c0.087,0.011,0.176,0.017,0.268,0.017c0.023,0,0.049-0.003,0.071-0.006    c0.04-0.007,0.037-0.029-0.003-0.06c-0.041-0.03,0.372-0.115,0.893-0.302c1.479-0.532,2.698-1.717,2.794-3.493    c0.001-0.014-0.003-0.024-0.008-0.034c-0.009-0.018-0.008-0.048,0-0.066C31.759,13.557,31.762,13.546,31.762,13.534z     M25.431,14.146c-0.021-0.087-0.04-0.174-0.054-0.261c-0.034-0.21-0.035-0.424-0.01-0.637c0.044-0.352,0.444-0.918,0.804-1.285    c0.358-0.367,0.457-0.589,0.24-0.455c-0.216,0.134-0.101-0.072,0.374-0.258c0.274-0.107,0.579-0.146,0.905-0.093    c0.134,0.021,0.259,0.058,0.378,0.104c0.202,0.079,0.039,0.493-0.349,0.887c-0.506,0.515-1.013,1.028-1.519,1.543    C25.816,14.085,25.468,14.291,25.431,14.146z M29.628,14.96c-0.315,0.917-1.003,1.653-2.125,1.468    c-0.126-0.021-0.245-0.054-0.359-0.097c-0.192-0.073-0.326-0.17-0.313-0.181c0.013-0.012-0.052-0.168-0.122-0.359    c-0.068-0.191-0.178-0.281-0.269-0.192c-0.09,0.088-0.392-0.069-0.591-0.41c-0.199-0.34-0.02-0.9,0.324-1.216    c0.344-0.314,0.795-0.995,1.163-1.406c0.142-0.159,0.3-0.304,0.471-0.432c0.441-0.331,1.255-0.194,1.538,0.28    c0.11,0.187,0.203,0.387,0.275,0.594C29.804,13.529,29.807,14.437,29.628,14.96z"/><path d="M45.387,32.008c-1.45-0.185-3.438-0.5-3.438-2.293c0-0.897-0.355-5.938,0.984-5.938c0.842,0,1.994,0.179,2.664-0.496    c0.941-0.951,0.49-2.595,0.49-3.858c0-1.275-0.688-1.458-1.612-1.456c-0.553,0.001-1.452-0.078-1.892-0.413    c-1.572-1.203,0.364-3.397-1.013-4.632c-0.675-0.604-3.186-0.118-3.977-0.118c-3.206,0-3.271,0.613-3.271,3.77    c0,1.63-1.014,1.85-1.958,2.359c-0.485,0.264-0.817,0.231-0.958-0.178c-0.102-0.298-0.25-0.514-0.463-0.604    c-1.328-0.561-4.001-0.183-5.441-0.055c-1.256,0.111-1.816,0.625-1.816,1.81c0,2.812,0,5.627,0,8.44    c0,2.458-0.722,6.239,0.208,8.545c0.436,1.081,5.635,0.315,6.757-0.083c1.619-0.573,0.757-4.846,0.757-6.187    c0-2.323,0-4.646,0-6.97c0-0.052,0.002-0.112,0.006-0.182c0.006-0.1,0.332,0.144,0.816,0.408c1.124,0.615,2.094,0.527,2.094,2.836    c0,3.121-0.459,6.354,1.396,9.035c1.813,2.622,7.049,2.332,9.59,1.334C46.7,36.538,46.84,32.195,45.387,32.008z M27.877,36.384    c-0.203,0-0.389-0.009-0.557-0.024c-0.306-0.03-0.547-0.132-0.547-0.181s-0.031-0.056-0.068-0.018    c-0.038,0.038-0.312,0.01-0.555-0.165c-0.242-0.174-0.138-0.62,0.133-0.894c0.271-0.272,0.49-0.521,0.49-0.552    c0-0.032-0.226,0.179-0.504,0.472c-0.277,0.292-0.684,0.123-0.708-0.413c-0.025-0.536,0.282-1.26,0.613-1.613    c0.331-0.354,0.599-1.088,0.599-1.642c0-0.151,0-0.306,0-0.46c0-0.552-0.259-0.738-0.578-0.417    c-0.318,0.323-0.578,0.138-0.578-0.416c0-0.772,0-1.547,0-2.32c0-0.553,0.26-1.266,0.578-1.592    c0.319-0.326,0.578-0.743,0.578-0.932c0-0.188-0.259-0.104-0.578,0.187c-0.318,0.291-0.578,0.08-0.578-0.474    c0-0.44,0-0.882,0-1.322c0-0.553,0.26-1.246,0.578-1.549c0.319-0.303,0.578-0.599,0.578-0.663c0-0.063-0.26,0.14-0.579,0.451    c-0.319,0.312-0.577,0.118-0.577-0.435c0-0.676,0-1.353,0-2.028c0-0.104,0.002-0.19,0.004-0.263    c0.004-0.146,0.368-0.261,0.822-0.261c0.273,0,0.548,0,0.822,0c0.366,0,0.674-0.01,0.932-0.01c0.516,0,0.818,0.239,0.708,0.348    c-0.11,0.107-0.134,0.194-0.051,0.194s0.207-0.055,0.279-0.124c0.071-0.067,0.276,0.138,0.313,0.497    c0.02,0.182,0.027,0.397,0.027,0.655c0,3.572,0,7.144,0,10.715C29.476,33.144,30.423,36.384,27.877,36.384z M41.03,36.712    c-1.355-0.111-2.349-0.6-3.068-1.335c-0.388-0.395-0.537-0.864-0.439-0.96c0.099-0.097,0.145-0.299,0.107-0.454    s-0.165-0.176-0.293-0.044c-0.13,0.132-0.441-0.16-0.614-0.685c-0.104-0.312-0.188-0.64-0.257-0.976    c-0.109-0.542,0.095-1.24,0.396-1.551c0.302-0.312,0.548-1.003,0.548-1.546c0-0.542-0.258-0.722-0.574-0.402    c-0.317,0.32-0.558,0.223-0.529-0.218c0.025-0.44,0.284-1.035,0.576-1.33c0.292-0.294,0.527-0.635,0.527-0.761    c0-0.078,0-0.155,0-0.229c0-0.023-0.002-0.047-0.004-0.07c-0.003-0.039-0.233,0.172-0.516,0.471    c-0.282,0.298-0.487,0.092-0.507-0.46c-0.002-0.055-0.005-0.109-0.009-0.163c-0.028-0.552-0.012-1.109,0.123-1.254    c0.136-0.145,0.129-0.372-0.049-0.449c-0.107-0.047-0.222-0.074-0.341-0.074c-0.019,0-0.039,0-0.057,0    c-0.031,0-0.229-0.438-0.648-0.797c-0.438-0.374-1.06-0.595-1.94-0.595c-0.503,0-0.55-3.197,0.573-3.472    c0.533-0.132,1.269-0.518,1.538-0.98c0.084-0.145,0.157-0.286,0.222-0.426c0.108-0.242,0.498-0.732,0.895-1.083    c0.397-0.353,0.719-0.711,0.719-0.801c0-0.092-0.302,0.126-0.674,0.486s-0.559,0.232-0.512-0.301s0.356-1.279,0.756-1.661    c0.268-0.256,0.532-0.509,0.789-0.756c0.009-0.009,0.019-0.019,0.029-0.029c0.017-0.016-0.057-0.028-0.16-0.028    c-0.104,0-0.457,0.259-0.786,0.578c-0.329,0.318-0.595,0.564-0.595,0.55c0-0.016,0.247-0.272,0.551-0.575    c0.303-0.303,0.294-0.324-0.008-0.035c-0.303,0.29-0.544,0.426-0.545,0.303c-0.001-0.072-0.001-0.146-0.001-0.223    c0-0.13-0.015-0.24-0.038-0.333c-0.046-0.179,0.3-0.296,0.852-0.296c0.533,0,1.065,0,1.599,0c0.164,0,0.312,0.006,0.439,0.018    c0.242,0.022,0.352,0.157,0.251,0.254c-0.101,0.098-0.061,0.177,0.09,0.177c0.151,0,0.312-0.035,0.359-0.077    c0.048-0.043,0.322,0.319,0.29,0.871c-0.022,0.384-0.081,0.861-0.081,1.438c0.001,1.5,0.731,2.086,2.05,2.468    c0.087,0.031,0.208,0.05,0.385,0.05c2.375,0,1.705,1.453,1.705,3.407c0,0.117,0.02,0.213,0.048,0.288    c0.061,0.151,0.031,0.207-0.148,0.197c-0.093-0.005-0.201-0.008-0.329-0.008c-0.334,0-0.661-0.019-0.985,0.077    c-3.228,0.938-2.723,3.322-2.723,6.345c0,0.896-0.285,2.616,0.725,3.167c0.524,0.287,3.482,0.633,3.482,0.983    C44.22,36.165,44.385,36.987,41.03,36.712z"/></g><g transform="matrix(1.9073655605316162 0 0 1.9073655605316162 41.99999930150187 175)" id="L1_121"><path d="M17.199,0c-0.664,0-1.233,0.252-1.705,0.757C15.024,1.261,14.79,1.87,14.79,2.581c0,0.688,0.236,1.285,0.705,1.79    c0.471,0.504,1.039,0.757,1.705,0.757c0.642,0,1.199-0.252,1.67-0.757c0.47-0.505,0.705-1.102,0.705-1.79    c0-0.711-0.235-1.319-0.705-1.824C18.398,0.252,17.841,0,17.199,0z"/><path d="M27.322,19.79c-1.01,0-1.508-0.769-1.508-2.306v-6.07h3.176V7.619H25.81c-0.012-0.5-0.04-1.651-0.06-2.191h-3.709v2.191    h-2.049v3.794h2.049v5.897c0,1.928,0.242,3.34,0.727,4.233c0.643,1.194,1.77,1.79,3.443,1.79c1.193,0,2.244-0.229,3.031-0.688    v-3.441C28.615,19.596,28.033,19.79,27.322,19.79z"/><path d="M15.005,7.674c-1.348,0.526-2.603,0.793-3.681,0.793c-0.962-0.551-1.96-0.826-3.084-0.826    c-1.561,0-2.901,0.516-4.026,1.548c-1.17,1.102-1.757,2.479-1.757,4.13c0,1.102,0.318,2.133,0.963,3.097    c0.573,0.895,1.173,1.469,1.958,1.721v0.069c-0.785,0.321-1.134,1.124-1.134,2.41c0,0.987,0.349,1.721,1.134,2.202v0.07    c-2.17,0.709-3.163,2.029-3.163,3.957c0,1.676,0.729,2.902,2.153,3.682c1.123,0.619,2.567,0.93,4.311,0.93    c4.244,0,6.371-1.777,6.371-5.335c0-2.226-1.638-3.591-4.919-4.097c-0.759-0.114-1.329-0.389-1.72-0.825    c-0.299-0.3-0.445-0.597-0.445-0.896c0-0.85,0.458-1.343,1.377-1.479c1.398-0.207,2.539-0.854,3.425-1.944    c0.882-1.09,1.324-2.37,1.324-3.838c0-0.458-0.139-0.952-0.321-1.479c0.541-0.126,0.931-0.24,1.234-0.347v12.102h4.155V6.953    h-4.155V7.674z M8.619,24.814c1.928,0,2.891,0.586,2.891,1.754c0,1.24-0.883,1.859-2.65,1.859c-2.019,0-3.027-0.597-3.027-1.789    C5.831,25.423,6.761,24.814,8.619,24.814z M8.378,15.729c-1.445,0-2.168-0.792-2.168-2.375c0-1.698,0.723-2.547,2.168-2.547    c0.689,0,1.229,0.264,1.617,0.792c0.321,0.481,0.481,1.055,0.481,1.721C10.477,14.926,9.778,15.729,8.378,15.729z"/></g><g transform="matrix(1.9073655605316162 0 0 1.9073655605316162 281.99999930150193 267)" id="L1_122"><path d="M17.199,0c-0.664,0-1.233,0.252-1.705,0.757C15.024,1.261,14.79,1.87,14.79,2.581c0,0.688,0.236,1.285,0.705,1.79    c0.471,0.504,1.039,0.757,1.705,0.757c0.642,0,1.199-0.252,1.67-0.757c0.47-0.505,0.705-1.102,0.705-1.79    c0-0.711-0.235-1.319-0.705-1.824C18.398,0.252,17.841,0,17.199,0z"/><path d="M27.322,19.79c-1.01,0-1.508-0.769-1.508-2.306v-6.07h3.176V7.619H25.81c-0.012-0.5-0.04-1.651-0.06-2.191h-3.709v2.191    h-2.049v3.794h2.049v5.897c0,1.928,0.242,3.34,0.727,4.233c0.643,1.194,1.77,1.79,3.443,1.79c1.193,0,2.244-0.229,3.031-0.688    v-3.441C28.615,19.596,28.033,19.79,27.322,19.79z"/><path d="M15.005,7.674c-1.348,0.526-2.603,0.793-3.681,0.793c-0.962-0.551-1.96-0.826-3.084-0.826    c-1.561,0-2.901,0.516-4.026,1.548c-1.17,1.102-1.757,2.479-1.757,4.13c0,1.102,0.318,2.133,0.963,3.097    c0.573,0.895,1.173,1.469,1.958,1.721v0.069c-0.785,0.321-1.134,1.124-1.134,2.41c0,0.987,0.349,1.721,1.134,2.202v0.07    c-2.17,0.709-3.163,2.029-3.163,3.957c0,1.676,0.729,2.902,2.153,3.682c1.123,0.619,2.567,0.93,4.311,0.93    c4.244,0,6.371-1.777,6.371-5.335c0-2.226-1.638-3.591-4.919-4.097c-0.759-0.114-1.329-0.389-1.72-0.825    c-0.299-0.3-0.445-0.597-0.445-0.896c0-0.85,0.458-1.343,1.377-1.479c1.398-0.207,2.539-0.854,3.425-1.944    c0.882-1.09,1.324-2.37,1.324-3.838c0-0.458-0.139-0.952-0.321-1.479c0.541-0.126,0.931-0.24,1.234-0.347v12.102h4.155V6.953    h-4.155V7.674z M8.619,24.814c1.928,0,2.891,0.586,2.891,1.754c0,1.24-0.883,1.859-2.65,1.859c-2.019,0-3.027-0.597-3.027-1.789    C5.831,25.423,6.761,24.814,8.619,24.814z M8.378,15.729c-1.445,0-2.168-0.792-2.168-2.375c0-1.698,0.723-2.547,2.168-2.547    c0.689,0,1.229,0.264,1.617,0.792c0.321,0.481,0.481,1.055,0.481,1.721C10.477,14.926,9.778,15.729,8.378,15.729z"/></g><g transform="matrix(2.5 0 0 2.5 162.99999940872192 121)" id="L1_123"><g fill="#b3b3b3"><path d="m10.878 5.83c-.868.35-1.802.606-2.752.606-2.716-1.591-6.401.067-6.401 3.553h.001c0 1.299.817 3.081 2.095 3.517v.051c-.949.426-1.212 2.598.051 3.378v.051c-1.378.462-2.286 1.35-2.286 2.885 0 2.644 2.463 3.378 4.619 3.378 2.626 0 4.579-.961 4.579-3.903 0-3.62-5.098-2.285-5.098-4.251 0-.693.364-.961.994-1.093 2.095-.395 3.407-2.054 3.407-4.22 0-.375-.075-.729-.202-1.078.338-.077.667-.17.994-.283v-2.591zm-4.725 12.57v-.001c.858 0 2.08.154 2.08 1.284 0 1.119-.984 1.35-1.903 1.35-.873 0-2.186-.139-2.186-1.294.005-1.144 1.115-1.339 2.009-1.339zm-.161-6.648v-.001c-1.11 0-1.58-.667-1.58-1.735 0-2.531 3.079-2.505 3.079-.025 0 1.042-.404 1.761-1.499 1.761z"/><path d="m22.5 17.058v-2.516c-.404.283-.984.426-1.479.426-.934 0-1.101-.924-1.101-1.685v-4.677c1.6 0 2.575.051 2.575.051v-2.438h-2.575c0-.703-.026-1.406.075-2.115h-2.862c.09.524.075.97.075 2.115h-1.212v2.439c.843-.134.858-.051 1.212-.051v.051h-.025v4.503c0 2.233.318 4.4 3.019 4.4.758-.001 1.627-.129 2.298-.503z"/><path d="m13.393.71c-1.009 0-1.741.893-1.741 1.884 0 .976.742 1.859 1.741 1.859.974 0 1.706-.898 1.706-1.859 0-.96-.706-1.884-1.706-1.884z"/><path d="m12.015 6.209c.091.759.081 10.253 0 11.182h2.802c-.081-.923-.091-10.433 0-11.182z"/></g><path d="m3.481 19.816c0 .753.375 2.016 2.889 2.016 2.356 0 2.611-1.449 2.611-2.071 0-2.222-2.981-2.042-2.785-2.005-2.442 0-2.712 1.438-2.715 2.06zm2.716-.561c1.284-.001 1.284.38 1.284.505 0 .214 0 .571-1.111.571-.922 0-1.389-.173-1.389-.512.001-.183.003-.564 1.216-.564z"/><path d="m3.744 10.303c0 3.249 4.512 3.319 4.512-.024 0-3.433-4.512-3.426-4.512.024zm2.295.948c-.435-.001-.795-.072-.795-.948 0-1.487 1.512-1.449 1.512-.024 0 .972-.398.972-.717.972z"/><path d="m23.021 14.486c0-.606-.68-.961-1.181-.614-.24.168-.648.281-1.016.281-.529 0-.29-2.027-.314-4.719 1.222.014 2.507.33 2.507-.704-.132-1.229.435-3.136-.75-3.136h-1.772c.001-.416.014-.816.069-1.213.065-.447-.283-.855-.742-.855-1.418.163-3.775-.509-3.539.877.056.321.063.628.063 1.192-.267.035-.678-.121-1.008.281-.397-.505-.821-.198-3.324-.291-.222 0-.417.097-.553.247-.541-.913-1.237.137-3.147.216-3.16-1.674-7.2.345-7.198 4.229 0 1.24.605 2.765 1.633 3.621-.466.817-.529 2.061.01 2.978-3.107 2.003-2.389 7.124 3.488 7.124 4.322 0 5.229-2.484 5.229-4.568 0-3.885-4.987-3.367-4.987-4.158 0-.222 0-.256.36-.333 2.732-.515 4.265-3.046 3.903-5.385.302-.093.413-.121.567-.262.046 8.308-.373 8.729.695 8.729 1.551-.166 3.603.481 3.488-.815-.051-.583-.069-4.892-.053-7.892.309.243.566.15.871.114 0 4.363-.624 8.76 3.703 8.76.712 0 1.743-.102 2.612-.587.237-.132.385-.383.385-.655v-2.462zm-12.952-6.293c-2.089.582.09 1.393-1.197 3.657-1.346 2.367-3.883.968-3.883 3.424 0 1.395 1.382 1.756 2.492 2.046 1.696.443 2.495.796 2.495 2.112 0 1.428-.424 3.068-3.729 3.068-4.668 0-4.627-3.8-2.044-4.666.553-.185.728-1.046.156-1.4-.71-.438-.527-1.808-.137-1.982.576-.259.619-1.211-.065-1.444-1.649-.564-2.431-4.168.06-5.596 1.958-1.122 3.457.139 3.91.139.617 0 1.259-.096 1.942-.291zm2.721 8.33c.042-2.085.055-7.327.006-9.439h1.179c-.049 2.112-.036 7.354.006 9.439zm8.731-.059c-.416.147-.933.226-1.497.226-2.631 0-2.179-2.304-2.179-8.009 0-.683-.608-.769-1.186-.774v-.813c.101-.029 1.186.185 1.186-.75.001-.438.004-.998-.005-1.319h1.165c-.037.969-.18 2.069.742 2.069h1.77v.858c-3.025-.082-2.455-.357-2.522 3.477-.043 2.43-.117 4.683 2.526 4.154z"/><path d="m15.812 2.593c0-3.463-4.872-3.393-4.872 0-.001 3.379 4.872 3.414 4.872 0zm-1.5 0c0 1.438-1.872 1.389-1.872 0-.001-1.421 1.872-1.479 1.872 0z"/></g><g transform="matrix(0.1249999925494194 0 0 0.1249999925494194 132 255)" id="L1_124"><path d="m32 400h-32v40c.0273438 22.082031 17.917969 39.972656 40 40h304c22.082031-.027344 39.972656-17.917969 40-40v-264h32v-144h-32v-24c0-4.417969-3.582031-8-8-8h-256c-2.125-.00390625-4.167969.84375-5.664062 2.351562l-80 80c-1.5 1.496094-2.339844 3.53125-2.335938 5.648438zm-16 40v-24h288v24c.03125 8.683594 2.914062 17.117188 8.207031 24h-272.207031c-13.253906 0-24-10.746094-24-24zm384-280h-240v-112h240zm-32-128h-224v144h224v264c0 13.253906-10.746094 24-24 24s-24-10.746094-24-24v-32c0-4.417969-3.582031-8-8-8h-264v-304h72c4.417969 0 8-3.582031 8-8v-72h240zm-308.6875 48 52.6875-52.6875v52.6875zm0 0"/><path d="m64 112h16v16h-16zm0 0"/><path d="m96 136h16v16h-16zm0 0"/><path d="m184 144h48c4.417969 0 8-3.582031 8-8v-32c0-4.417969-3.582031-8-8-8h-24v16h16v16h-32v-48h48v-16h-56c-4.417969 0-8 3.582031-8 8v64c0 4.417969 3.582031 8 8 8zm0 0"/><path d="m256 64h16v80h-16zm0 0"/><path d="m312 144h16v-64h24v-16h-64v16h24zm0 0"/><path d="m64 384h288v-192h-288zm16-176h256v160h-256zm0 0"/><path d="m293.65625 306.34375-28.082031-28.078125-37.148438 18.535156 7.148438 14.320313 18.328125-9.167969c-6.15625 20.199219-24.78125 34.015625-45.902344 34.046875-16.289062.082031-31.660156-7.546875-41.441406-20.574219l-13.117188 9.148438c12.816406 17.265625 33.054688 27.4375 54.558594 27.425781 28.78125-.054688 53.996094-19.292969 61.648438-47.039062l12.695312 12.695312zm0 0"/><path d="m180.425781 264.800781-18.328125 9.167969c6.1875-20.171875 24.804688-33.949219 45.902344-33.96875 16.34375-1.195312 32.0625 6.496094 41.152344 20.128906l13.695312-8.257812c-11.886718-18.535156-32.867187-29.199219-54.847656-27.871094-28.78125.054688-53.996094 19.292969-61.648438 47.039062l-12.695312-12.695312-11.3125 11.3125 28.082031 28.078125 37.148438-18.535156zm0 0"/><path d="m96 224h16v16h-16zm0 0"/><path d="m288 336h32v16h-32zm0 0"/></g><g transform="matrix(2.5 0 0 2.5 192.99999996185306 -19.000000724792528)" id="L1_125"><path d="m10.735 5.823c-.909.365-1.887.632-2.882.632-2.845-1.661-6.706.07-6.706 3.708h.001c0 1.356.856 3.215 2.194 3.67v.054c-.994.445-1.269 2.711.053 3.525v.054c-1.444.481-2.395 1.408-2.395 3.009 0 2.759 2.58 3.525 4.839 3.525 2.751 0 4.797-1.002 4.797-4.072 0-3.777-5.341-2.384-5.341-4.436 0-.723.381-1.002 1.041-1.141 2.194-.413 3.57-2.143 3.57-4.404 0-.391-.079-.761-.212-1.125.354-.08.698-.177 1.041-.295zm-4.949 13.116v-.001c.899 0 2.179.161 2.179 1.339 0 1.168-1.031 1.409-1.994 1.409-.915 0-2.29-.145-2.29-1.35.005-1.193 1.168-1.397 2.105-1.397zm-.169-6.937v-.001c-1.163 0-1.655-.696-1.655-1.81 0-2.641 3.226-2.614 3.226-.026-.001 1.087-.424 1.837-1.571 1.837z"/><path d="m23 17.277v-2.625c-.423.295-1.031.445-1.549.445-.978 0-1.153-.965-1.153-1.758v-4.88c1.677 0 2.698.054 2.698.054v-2.546h-2.698c0-.734-.027-1.467.079-2.207h-2.999c.095.546.079 1.013.079 2.207h-1.269v2.545c.883-.139.899-.054 1.269-.054v.054h-.026v4.698c0 2.33.333 4.591 3.162 4.591.794.001 1.704-.133 2.407-.524z"/><path d="m13.492 0c-1.057 0-1.824.931-1.824 1.966 0 1.018.777 1.94 1.824 1.94 1.02 0 1.787-.937 1.787-1.94 0-1.001-.741-1.966-1.787-1.966z"/><path d="m12.016 5.957c.095.792.085 10.699 0 11.668h2.936c-.085-.963-.095-10.886 0-11.668z"/></g><g transform="matrix(0.15625 0 0 0.15625 259 175)" id="L1_126"><path d="M64,0v80H0v144h64v160h224l96-96V0H64z M16,208V96h240v112H16z M288,361.376V288h73.376L288,361.376z M368,272h-96v96H80    V224h192V80H80V16h288V272z"/><path d="M70.896,149.44v10.176H80v7.008c0,1.856-0.272,3.488-0.848,4.864c-0.576,1.376-1.296,2.496-2.16,3.408    c-0.88,0.896-1.792,1.568-2.784,2.016c-1.008,0.432-1.904,0.672-2.752,0.672c-1.984,0-3.6-0.624-4.848-1.872    c-1.248-1.248-2.208-3.04-2.88-5.376s-1.136-5.168-1.392-8.496s-0.384-7.024-0.384-11.136c0-8.56,0.736-14.72,2.208-18.416    c1.488-3.728,3.872-5.584,7.2-5.584c1.408,0,2.624,0.368,3.616,1.104c0.976,0.736,1.792,1.68,2.432,2.784    c0.64,1.12,1.104,2.352,1.392,3.696c0.288,1.344,0.432,2.656,0.432,3.92h13.232c0-6.992-1.664-12.352-4.992-16.08    c-3.328-3.76-8.768-5.632-16.32-5.632c-4.416,0-8.08,0.736-11.04,2.208c-2.928,1.488-5.312,3.664-7.088,6.576    c-1.792,2.928-3.056,6.56-3.792,10.912c-0.736,4.336-1.104,9.408-1.104,15.152c0,5.952,0.272,11.184,0.784,15.696    c0.496,4.512,1.504,8.288,3.008,11.376c1.504,3.088,3.568,5.344,6.24,6.816s6.112,2.224,10.336,2.224c3.264,0,6.064-0.56,8.4-1.68    s4.336-3.008,6-5.712h0.176v6.336h10.176v-36.96H70.896z"/><rect x="112px" y="117px" width="13px" height="68px"/><path d="M142.496,117.856 142.496,129.184 157.472,129.184 157.472,186.4 171.296,186.4 171.296,129.184 186.272,129.184     186.272,117.856z"/></g><g transform="matrix(1.9048223495483398 0 0 1.9048223495483398 19 -25)" id="L1_127"><path d="M9.602,11.632c-1.208,0-1.813,0.711-1.813,2.131c0,1.324,0.605,1.986,1.813,1.986c1.171,0,1.755-0.673,1.755-2.015    c0-0.558-0.134-1.037-0.402-1.439C10.628,11.854,10.178,11.632,9.602,11.632z"/><path d="M0,0v31.499h31.498V0H0z M18.62,22.097h-3.477v-10.12c-0.254,0.089-0.58,0.186-1.032,0.29    c0.153,0.44,0.27,0.853,0.27,1.237c0,1.229-0.371,2.299-1.108,3.21c-0.74,0.911-1.694,1.454-2.864,1.625    c-0.768,0.114-1.152,0.528-1.152,1.239c0,0.248,0.123,0.498,0.373,0.748c0.327,0.363,0.804,0.595,1.438,0.688    c2.745,0.425,4.115,1.565,4.115,3.427c0,2.976-1.778,4.463-5.329,4.463c-1.457,0-2.666-0.26-3.605-0.776    c-1.19-0.653-1.801-1.681-1.801-3.081c0-1.611,0.83-2.717,2.646-3.311V21.68c-0.656-0.404-0.948-1.018-0.948-1.843    c0-1.075,0.292-1.747,0.948-2.017v-0.058c-0.656-0.21-1.158-0.69-1.638-1.438c-0.54-0.807-0.806-1.668-0.806-2.59    c0-1.383,0.491-2.533,1.471-3.455c0.94-0.863,2.061-1.295,3.367-1.295c0.939,0,1.773,0.229,2.579,0.69    c0.902,0,1.951-0.223,3.078-0.662V8.409h3.477v13.688H18.62z M18.375,6.249c-0.395,0.422-0.859,0.633-1.396,0.633    c-0.558,0-1.032-0.211-1.426-0.633c-0.393-0.422-0.59-0.922-0.59-1.497c0-0.594,0.195-1.104,0.59-1.525    c0.394-0.423,0.869-0.633,1.426-0.633c0.535,0,1,0.21,1.396,0.633c0.393,0.422,0.592,0.932,0.592,1.525    C18.967,5.327,18.768,5.827,18.375,6.249z M27.053,21.533c-0.658,0.387-1.537,0.578-2.535,0.578c-1.4,0-2.344-0.5-2.881-1.5    c-0.404-0.746-0.607-1.927-0.607-3.539V12.14h-1.715V8.966h1.715V7.134h3.104c0.016,0.452,0.039,1.414,0.049,1.832h2.66v3.174    h-2.656v5.077c0,1.285,0.416,1.929,1.263,1.929c0.594,0,1.081-0.161,1.606-0.489v2.877H27.053z"/><path d="M7.473,24.876c0,0.995,0.843,1.495,2.532,1.495c1.478,0,2.216-0.519,2.216-1.555c0-0.979-0.805-1.469-2.418-1.469    C8.249,23.349,7.472,23.857,7.473,24.876z"/></g><g transform="matrix(1.9048223495483398 0 0 1.9048223495483398 263 21)" id="L1_128"><path d="M9.602,11.632c-1.208,0-1.813,0.711-1.813,2.131c0,1.324,0.605,1.986,1.813,1.986c1.171,0,1.755-0.673,1.755-2.015    c0-0.558-0.134-1.037-0.402-1.439C10.628,11.854,10.178,11.632,9.602,11.632z"/><path d="M0,0v31.499h31.498V0H0z M18.62,22.097h-3.477v-10.12c-0.254,0.089-0.58,0.186-1.032,0.29    c0.153,0.44,0.27,0.853,0.27,1.237c0,1.229-0.371,2.299-1.108,3.21c-0.74,0.911-1.694,1.454-2.864,1.625    c-0.768,0.114-1.152,0.528-1.152,1.239c0,0.248,0.123,0.498,0.373,0.748c0.327,0.363,0.804,0.595,1.438,0.688    c2.745,0.425,4.115,1.565,4.115,3.427c0,2.976-1.778,4.463-5.329,4.463c-1.457,0-2.666-0.26-3.605-0.776    c-1.19-0.653-1.801-1.681-1.801-3.081c0-1.611,0.83-2.717,2.646-3.311V21.68c-0.656-0.404-0.948-1.018-0.948-1.843    c0-1.075,0.292-1.747,0.948-2.017v-0.058c-0.656-0.21-1.158-0.69-1.638-1.438c-0.54-0.807-0.806-1.668-0.806-2.59    c0-1.383,0.491-2.533,1.471-3.455c0.94-0.863,2.061-1.295,3.367-1.295c0.939,0,1.773,0.229,2.579,0.69    c0.902,0,1.951-0.223,3.078-0.662V8.409h3.477v13.688H18.62z M18.375,6.249c-0.395,0.422-0.859,0.633-1.396,0.633    c-0.558,0-1.032-0.211-1.426-0.633c-0.393-0.422-0.59-0.922-0.59-1.497c0-0.594,0.195-1.104,0.59-1.525    c0.394-0.423,0.869-0.633,1.426-0.633c0.535,0,1,0.21,1.396,0.633c0.393,0.422,0.592,0.932,0.592,1.525    C18.967,5.327,18.768,5.827,18.375,6.249z M27.053,21.533c-0.658,0.387-1.537,0.578-2.535,0.578c-1.4,0-2.344-0.5-2.881-1.5    c-0.404-0.746-0.607-1.927-0.607-3.539V12.14h-1.715V8.966h1.715V7.134h3.104c0.016,0.452,0.039,1.414,0.049,1.832h2.66v3.174    h-2.656v5.077c0,1.285,0.416,1.929,1.263,1.929c0.594,0,1.081-0.161,1.606-0.489v2.877H27.053z"/><path d="M7.473,24.876c0,0.995,0.843,1.495,2.532,1.495c1.478,0,2.216-0.519,2.216-1.555c0-0.979-0.805-1.469-2.418-1.469    C8.249,23.349,7.472,23.857,7.473,24.876z"/></g><g transform="matrix(0.15625 0 0 0.15625 172 53)" id="L1_129"><path d="M64,0v80H0v144h64v160h224l96-96V0H64z M16,208V96h240v112H16z M288,361.376V288h73.376L288,361.376z M368,272h-96v96H80    V224h192V80H80V16h288V272z"/><path d="M70.896,149.44v10.176H80v7.008c0,1.856-0.272,3.488-0.848,4.864c-0.576,1.376-1.296,2.496-2.16,3.408    c-0.88,0.896-1.792,1.568-2.784,2.016c-1.008,0.432-1.904,0.672-2.752,0.672c-1.984,0-3.6-0.624-4.848-1.872    c-1.248-1.248-2.208-3.04-2.88-5.376s-1.136-5.168-1.392-8.496s-0.384-7.024-0.384-11.136c0-8.56,0.736-14.72,2.208-18.416    c1.488-3.728,3.872-5.584,7.2-5.584c1.408,0,2.624,0.368,3.616,1.104c0.976,0.736,1.792,1.68,2.432,2.784    c0.64,1.12,1.104,2.352,1.392,3.696c0.288,1.344,0.432,2.656,0.432,3.92h13.232c0-6.992-1.664-12.352-4.992-16.08    c-3.328-3.76-8.768-5.632-16.32-5.632c-4.416,0-8.08,0.736-11.04,2.208c-2.928,1.488-5.312,3.664-7.088,6.576    c-1.792,2.928-3.056,6.56-3.792,10.912c-0.736,4.336-1.104,9.408-1.104,15.152c0,5.952,0.272,11.184,0.784,15.696    c0.496,4.512,1.504,8.288,3.008,11.376c1.504,3.088,3.568,5.344,6.24,6.816s6.112,2.224,10.336,2.224c3.264,0,6.064-0.56,8.4-1.68    s4.336-3.008,6-5.712h0.176v6.336h10.176v-36.96H70.896z"/><rect x="112px" y="117px" width="13px" height="68px"/><path d="M142.496,117.856 142.496,129.184 157.472,129.184 157.472,186.4 171.296,186.4 171.296,129.184 186.272,129.184     186.272,117.856z"/></g><g transform="matrix(1.9048223495483398 0 0 1.9048223495483398 41 109)" id="L1_130"><path d="M9.602,11.632c-1.208,0-1.813,0.711-1.813,2.131c0,1.324,0.605,1.986,1.813,1.986c1.171,0,1.755-0.673,1.755-2.015    c0-0.558-0.134-1.037-0.402-1.439C10.628,11.854,10.178,11.632,9.602,11.632z"/><path d="M0,0v31.499h31.498V0H0z M18.62,22.097h-3.477v-10.12c-0.254,0.089-0.58,0.186-1.032,0.29    c0.153,0.44,0.27,0.853,0.27,1.237c0,1.229-0.371,2.299-1.108,3.21c-0.74,0.911-1.694,1.454-2.864,1.625    c-0.768,0.114-1.152,0.528-1.152,1.239c0,0.248,0.123,0.498,0.373,0.748c0.327,0.363,0.804,0.595,1.438,0.688    c2.745,0.425,4.115,1.565,4.115,3.427c0,2.976-1.778,4.463-5.329,4.463c-1.457,0-2.666-0.26-3.605-0.776    c-1.19-0.653-1.801-1.681-1.801-3.081c0-1.611,0.83-2.717,2.646-3.311V21.68c-0.656-0.404-0.948-1.018-0.948-1.843    c0-1.075,0.292-1.747,0.948-2.017v-0.058c-0.656-0.21-1.158-0.69-1.638-1.438c-0.54-0.807-0.806-1.668-0.806-2.59    c0-1.383,0.491-2.533,1.471-3.455c0.94-0.863,2.061-1.295,3.367-1.295c0.939,0,1.773,0.229,2.579,0.69    c0.902,0,1.951-0.223,3.078-0.662V8.409h3.477v13.688H18.62z M18.375,6.249c-0.395,0.422-0.859,0.633-1.396,0.633    c-0.558,0-1.032-0.211-1.426-0.633c-0.393-0.422-0.59-0.922-0.59-1.497c0-0.594,0.195-1.104,0.59-1.525    c0.394-0.423,0.869-0.633,1.426-0.633c0.535,0,1,0.21,1.396,0.633c0.393,0.422,0.592,0.932,0.592,1.525    C18.967,5.327,18.768,5.827,18.375,6.249z M27.053,21.533c-0.658,0.387-1.537,0.578-2.535,0.578c-1.4,0-2.344-0.5-2.881-1.5    c-0.404-0.746-0.607-1.927-0.607-3.539V12.14h-1.715V8.966h1.715V7.134h3.104c0.016,0.452,0.039,1.414,0.049,1.832h2.66v3.174    h-2.656v5.077c0,1.285,0.416,1.929,1.263,1.929c0.594,0,1.081-0.161,1.606-0.489v2.877H27.053z"/><path d="M7.473,24.876c0,0.995,0.843,1.495,2.532,1.495c1.478,0,2.216-0.519,2.216-1.555c0-0.979-0.805-1.469-2.418-1.469    C8.249,23.349,7.472,23.857,7.473,24.876z"/></g><g transform="matrix(0.15625 0 0 0.15625 30 252)" id="L1_131"><path d="M64,0v80H0v144h64v160h224l96-96V0H64z M16,208V96h240v112H16z M288,361.376V288h73.376L288,361.376z M368,272h-96v96H80    V224h192V80H80V16h288V272z"/><path d="M70.896,149.44v10.176H80v7.008c0,1.856-0.272,3.488-0.848,4.864c-0.576,1.376-1.296,2.496-2.16,3.408    c-0.88,0.896-1.792,1.568-2.784,2.016c-1.008,0.432-1.904,0.672-2.752,0.672c-1.984,0-3.6-0.624-4.848-1.872    c-1.248-1.248-2.208-3.04-2.88-5.376s-1.136-5.168-1.392-8.496s-0.384-7.024-0.384-11.136c0-8.56,0.736-14.72,2.208-18.416    c1.488-3.728,3.872-5.584,7.2-5.584c1.408,0,2.624,0.368,3.616,1.104c0.976,0.736,1.792,1.68,2.432,2.784    c0.64,1.12,1.104,2.352,1.392,3.696c0.288,1.344,0.432,2.656,0.432,3.92h13.232c0-6.992-1.664-12.352-4.992-16.08    c-3.328-3.76-8.768-5.632-16.32-5.632c-4.416,0-8.08,0.736-11.04,2.208c-2.928,1.488-5.312,3.664-7.088,6.576    c-1.792,2.928-3.056,6.56-3.792,10.912c-0.736,4.336-1.104,9.408-1.104,15.152c0,5.952,0.272,11.184,0.784,15.696    c0.496,4.512,1.504,8.288,3.008,11.376c1.504,3.088,3.568,5.344,6.24,6.816s6.112,2.224,10.336,2.224c3.264,0,6.064-0.56,8.4-1.68    s4.336-3.008,6-5.712h0.176v6.336h10.176v-36.96H70.896z"/><rect x="112px" y="117px" width="13px" height="68px"/><path d="M142.496,117.856 142.496,129.184 157.472,129.184 157.472,186.4 171.296,186.4 171.296,129.184 186.272,129.184     186.272,117.856z"/></g></defs><g fi:class="KUsePattern"><pattern id="pattern_L1_119" width="350" height="350" patternUnits="userSpaceOnUse"><use xlink:href="#L1_119" x="-350" y="-350"/><use xlink:href="#L1_119" x="0" y="-350"/><use xlink:href="#L1_119" x="350" y="-350"/><use xlink:href="#L1_119" x="-350" y="0"/><use xlink:href="#L1_119" x="0" y="0"/><use xlink:href="#L1_119" x="350" y="0"/><use xlink:href="#L1_119" x="-350" y="350"/><use xlink:href="#L1_119" x="0" y="350"/><use xlink:href="#L1_119" x="350" y="350"/></pattern><rect x="0" y="0" width="100%" height="100%" fill="url(#pattern_L1_119)"/></g><g fi:class="KUsePattern"><pattern id="pattern_L1_120" width="350" height="350" patternUnits="userSpaceOnUse"><use xlink:href="#L1_120" x="-350" y="-350"/><use xlink:href="#L1_120" x="0" y="-350"/><use xlink:href="#L1_120" x="350" y="-350"/><use xlink:href="#L1_120" x="-350" y="0"/><use xlink:href="#L1_120" x="0" y="0"/><use xlink:href="#L1_120" x="350" y="0"/><use xlink:href="#L1_120" x="-350" y="350"/><use xlink:href="#L1_120" x="0" y="350"/><use xlink:href="#L1_120" x="350" y="350"/></pattern><rect x="0" y="0" width="100%" height="100%" fill="url(#pattern_L1_120)"/></g><g fi:class="KUsePattern"><pattern id="pattern_L1_121" width="350" height="350" patternUnits="userSpaceOnUse"><use xlink:href="#L1_121" x="-350" y="-350"/><use xlink:href="#L1_121" x="0" y="-350"/><use xlink:href="#L1_121" x="350" y="-350"/><use xlink:href="#L1_121" x="-350" y="0"/><use xlink:href="#L1_121" x="0" y="0"/><use xlink:href="#L1_121" x="350" y="0"/><use xlink:href="#L1_121" x="-350" y="350"/><use xlink:href="#L1_121" x="0" y="350"/><use xlink:href="#L1_121" x="350" y="350"/></pattern><rect x="0" y="0" width="100%" height="100%" fill="url(#pattern_L1_121)"/></g><g fi:class="KUsePattern"><pattern id="pattern_L1_122" width="350" height="350" patternUnits="userSpaceOnUse"><use xlink:href="#L1_122" x="-350" y="-350"/><use xlink:href="#L1_122" x="0" y="-350"/><use xlink:href="#L1_122" x="350" y="-350"/><use xlink:href="#L1_122" x="-350" y="0"/><use xlink:href="#L1_122" x="0" y="0"/><use xlink:href="#L1_122" x="350" y="0"/><use xlink:href="#L1_122" x="-350" y="350"/><use xlink:href="#L1_122" x="0" y="350"/><use xlink:href="#L1_122" x="350" y="350"/></pattern><rect x="0" y="0" width="100%" height="100%" fill="url(#pattern_L1_122)"/></g><g fi:class="KUsePattern"><pattern id="pattern_L1_123" width="350" height="350" patternUnits="userSpaceOnUse"><use xlink:href="#L1_123" x="-350" y="-350"/><use xlink:href="#L1_123" x="0" y="-350"/><use xlink:href="#L1_123" x="350" y="-350"/><use xlink:href="#L1_123" x="-350" y="0"/><use xlink:href="#L1_123" x="0" y="0"/><use xlink:href="#L1_123" x="350" y="0"/><use xlink:href="#L1_123" x="-350" y="350"/><use xlink:href="#L1_123" x="0" y="350"/><use xlink:href="#L1_123" x="350" y="350"/></pattern><rect x="0" y="0" width="100%" height="100%" fill="url(#pattern_L1_123)"/></g><g fi:class="KUsePattern"><pattern id="pattern_L1_124" width="350" height="350" patternUnits="userSpaceOnUse"><use xlink:href="#L1_124" x="-350" y="-350"/><use xlink:href="#L1_124" x="0" y="-350"/><use xlink:href="#L1_124" x="350" y="-350"/><use xlink:href="#L1_124" x="-350" y="0"/><use xlink:href="#L1_124" x="0" y="0"/><use xlink:href="#L1_124" x="350" y="0"/><use xlink:href="#L1_124" x="-350" y="350"/><use xlink:href="#L1_124" x="0" y="350"/><use xlink:href="#L1_124" x="350" y="350"/></pattern><rect x="0" y="0" width="100%" height="100%" fill="url(#pattern_L1_124)"/></g><g fi:class="KUsePattern"><pattern id="pattern_L1_125" width="350" height="350" patternUnits="userSpaceOnUse"><use xlink:href="#L1_125" x="-350" y="-350"/><use xlink:href="#L1_125" x="0" y="-350"/><use xlink:href="#L1_125" x="350" y="-350"/><use xlink:href="#L1_125" x="-350" y="0"/><use xlink:href="#L1_125" x="0" y="0"/><use xlink:href="#L1_125" x="350" y="0"/><use xlink:href="#L1_125" x="-350" y="350"/><use xlink:href="#L1_125" x="0" y="350"/><use xlink:href="#L1_125" x="350" y="350"/></pattern><rect x="0" y="0" width="100%" height="100%" fill="url(#pattern_L1_125)"/></g><g fi:class="KUsePattern"><pattern id="pattern_L1_126" width="350" height="350" patternUnits="userSpaceOnUse"><use xlink:href="#L1_126" x="-350" y="-350"/><use xlink:href="#L1_126" x="0" y="-350"/><use xlink:href="#L1_126" x="350" y="-350"/><use xlink:href="#L1_126" x="-350" y="0"/><use xlink:href="#L1_126" x="0" y="0"/><use xlink:href="#L1_126" x="350" y="0"/><use xlink:href="#L1_126" x="-350" y="350"/><use xlink:href="#L1_126" x="0" y="350"/><use xlink:href="#L1_126" x="350" y="350"/></pattern><rect x="0" y="0" width="100%" height="100%" fill="url(#pattern_L1_126)"/></g><g fi:class="KUsePattern"><pattern id="pattern_L1_127" width="350" height="350" patternUnits="userSpaceOnUse"><use xlink:href="#L1_127" x="-350" y="-350"/><use xlink:href="#L1_127" x="0" y="-350"/><use xlink:href="#L1_127" x="350" y="-350"/><use xlink:href="#L1_127" x="-350" y="0"/><use xlink:href="#L1_127" x="0" y="0"/><use xlink:href="#L1_127" x="350" y="0"/><use xlink:href="#L1_127" x="-350" y="350"/><use xlink:href="#L1_127" x="0" y="350"/><use xlink:href="#L1_127" x="350" y="350"/></pattern><rect x="0" y="0" width="100%" height="100%" fill="url(#pattern_L1_127)"/></g><g fi:class="KUsePattern"><pattern id="pattern_L1_128" width="350" height="350" patternUnits="userSpaceOnUse"><use xlink:href="#L1_128" x="-350" y="-350"/><use xlink:href="#L1_128" x="0" y="-350"/><use xlink:href="#L1_128" x="350" y="-350"/><use xlink:href="#L1_128" x="-350" y="0"/><use xlink:href="#L1_128" x="0" y="0"/><use xlink:href="#L1_128" x="350" y="0"/><use xlink:href="#L1_128" x="-350" y="350"/><use xlink:href="#L1_128" x="0" y="350"/><use xlink:href="#L1_128" x="350" y="350"/></pattern><rect x="0" y="0" width="100%" height="100%" fill="url(#pattern_L1_128)"/></g><g fi:class="KUsePattern"><pattern id="pattern_L1_129" width="350" height="350" patternUnits="userSpaceOnUse"><use xlink:href="#L1_129" x="-350" y="-350"/><use xlink:href="#L1_129" x="0" y="-350"/><use xlink:href="#L1_129" x="350" y="-350"/><use xlink:href="#L1_129" x="-350" y="0"/><use xlink:href="#L1_129" x="0" y="0"/><use xlink:href="#L1_129" x="350" y="0"/><use xlink:href="#L1_129" x="-350" y="350"/><use xlink:href="#L1_129" x="0" y="350"/><use xlink:href="#L1_129" x="350" y="350"/></pattern><rect x="0" y="0" width="100%" height="100%" fill="url(#pattern_L1_129)"/></g><g fi:class="KUsePattern"><pattern id="pattern_L1_130" width="350" height="350" patternUnits="userSpaceOnUse"><use xlink:href="#L1_130" x="-350" y="-350"/><use xlink:href="#L1_130" x="0" y="-350"/><use xlink:href="#L1_130" x="350" y="-350"/><use xlink:href="#L1_130" x="-350" y="0"/><use xlink:href="#L1_130" x="0" y="0"/><use xlink:href="#L1_130" x="350" y="0"/><use xlink:href="#L1_130" x="-350" y="350"/><use xlink:href="#L1_130" x="0" y="350"/><use xlink:href="#L1_130" x="350" y="350"/></pattern><rect x="0" y="0" width="100%" height="100%" fill="url(#pattern_L1_130)"/></g><g fi:class="KUsePattern"><pattern id="pattern_L1_131" width="350" height="350" patternUnits="userSpaceOnUse"><use xlink:href="#L1_131" x="-350" y="-350"/><use xlink:href="#L1_131" x="0" y="-350"/><use xlink:href="#L1_131" x="350" y="-350"/><use xlink:href="#L1_131" x="-350" y="0"/><use xlink:href="#L1_131" x="0" y="0"/><use xlink:href="#L1_131" x="350" y="0"/><use xlink:href="#L1_131" x="-350" y="350"/><use xlink:href="#L1_131" x="0" y="350"/><use xlink:href="#L1_131" x="350" y="350"/></pattern><rect x="0" y="0" width="100%" height="100%" fill="url(#pattern_L1_131)"/></g></svg>